<svg width="552" height="413" viewBox="0 0 552 413" fill="none" xmlns="http://www.w3.org/2000/svg">
<path fill-rule="evenodd" clip-rule="evenodd" d="M552 0H0V413H552V0ZM347.09 199.559C347.09 234.966 341.289 261.175 329.687 278.186C318.084 295.196 300.219 303.701 276.09 303.701C252.7 303.701 235.066 294.919 223.187 277.354C211.307 259.788 205.367 233.857 205.367 199.559C205.367 163.781 211.145 137.411 222.701 120.446C234.257 103.482 252.053 95 276.09 95C299.479 95 317.16 103.875 329.132 121.625C341.104 139.375 347.09 165.353 347.09 199.559ZM190.668 258.91H166.262V300.928H124.383V258.91H37.8516V229.096L126.74 98.1895H166.262V225.629H190.668V258.91ZM494.319 278.186C505.922 261.175 511.723 234.966 511.723 199.559C511.723 165.353 505.737 139.375 493.765 121.625C481.793 103.875 464.112 95 440.723 95C416.686 95 398.89 103.482 387.334 120.446C375.778 137.411 370 163.781 370 199.559C370 233.857 375.94 259.788 387.819 277.354C399.699 294.919 417.333 303.701 440.723 303.701C464.852 303.701 482.717 295.196 494.319 278.186Z" fill="white"/>
</svg>
